# xmcd
#
# Track frame offsets: 
#        150
#        24354
#        51777
#        72652
#        88919
#        110919
#        134979
#        155484
#        177849
#        204188
#
# Disc length: 2950 seconds
#
# Revision: 0
# Processed by: cddbd v1.5.2PL0 Copyright (c) Steve Scherf et al.
# Submitted via: ExactAudioCopy v1.0b3
#
DISCID=940b840a
DTITLE=Son Tuyen - Nhac Tuyen
DYEAR=1998
DGENRE=
TTITLE0=Dem buon tinh le
TTITLE1=Thanh pho buon
TTITLE2=Mua nua dem
TTITLE3=Chuyen tinh nguoi trinh nu ten Thi
TTITLE4=Xom dem
TTITLE5=Doi mat nguoi xua
TTITLE6=Co lai do ben Ha
TTITLE7=Nha anh nha em
TTITLE8=Hai mua mua
TTITLE9=Doi khong nhu la mo
EXTD=
EXTT0=
EXTT1=
EXTT2=
EXTT3=
EXTT4=
EXTT5=
EXTT6=
EXTT7=
EXTT8=
EXTT9=
PLAYORDER=
